<svg xmlns="http://www.w3.org/2000/svg" viewBox="0 0 400 400" fill="none">
  <defs>
    <radialGradient id="forgeGlow" cx="50%" cy="65%" r="45%">
      <stop offset="0%" stop-color="#F5A623" stop-opacity="0.35"/>
      <stop offset="100%" stop-color="#F5A623" stop-opacity="0"/>
    </radialGradient>
    <linearGradient id="anvilGrad" x1="0%" y1="0%" x2="100%" y2="100%">
      <stop offset="0%" stop-color="#F5A623" stop-opacity="0.9"/>
      <stop offset="100%" stop-color="#E8860A" stop-opacity="0.9"/>
    </linearGradient>
  </defs>
  <ellipse cx="200" cy="290" rx="130" ry="45" fill="url(#forgeGlow)"/>
  <path d="M200 110 C200 88, 222 68, 212 44 C234 58, 246 86, 234 118 C264 90, 270 58, 260 30 C286 62, 280 104, 264 136 C276 124, 288 146, 272 168 C260 185, 234 196, 212 190 C184 200, 158 188, 145 167 C129 142, 135 116, 148 130 C132 98, 138 62, 165 42 C158 68, 176 86, 200 110Z" fill="#F5A623" fill-opacity="0.07" stroke="#F5A623" stroke-opacity="0.22" stroke-width="1"/>
  <path d="M200 138 C200 122, 213 106, 207 93 C220 103, 225 122, 218 143 C231 127, 233 105, 227 89 C242 106, 239 132, 228 153 C234 145, 240 157, 229 168 C221 176, 207 181, 196 179 C180 182, 166 175, 159 166 C150 154, 154 141, 162 149 C151 129, 157 107, 171 99 C168 114, 180 123, 200 138Z" fill="#F5A623" fill-opacity="0.14" stroke="#F5A623" stroke-opacity="0.38" stroke-width="1"/>
  <rect x="110" y="234" width="180" height="34" rx="3" fill="#F5A623" fill-opacity="0.08" stroke="#F5A623" stroke-opacity="0.28" stroke-width="1.5"/>
  <rect x="130" y="268" width="140" height="58" rx="4" fill="#F5A623" fill-opacity="0.06" stroke="#F5A623" stroke-opacity="0.22" stroke-width="1.5"/>
  <path d="M158 234 L96 196 L96 158" stroke="#0E94BB" stroke-opacity="0.28" stroke-width="1" stroke-dasharray="4 4"/>
  <path d="M242 234 L304 196 L304 152" stroke="#0E94BB" stroke-opacity="0.28" stroke-width="1" stroke-dasharray="4 4"/>
  <circle cx="96" cy="158" r="4" fill="#0E94BB" fill-opacity="0.5"/>
  <circle cx="304" cy="152" r="4" fill="#0E94BB" fill-opacity="0.5"/>
  <circle cx="64" cy="132" r="3" fill="#0E94BB" fill-opacity="0.3"/>
  <circle cx="336" cy="120" r="3" fill="#0E94BB" fill-opacity="0.3"/>
  <path d="M96 158 L64 132" stroke="#0E94BB" stroke-opacity="0.18" stroke-width="1" stroke-dasharray="3 3"/>
  <path d="M304 152 L336 120" stroke="#0E94BB" stroke-opacity="0.18" stroke-width="1" stroke-dasharray="3 3"/>
  <circle cx="163" cy="175" r="2.5" fill="#F5A623" fill-opacity="0.7"/>
  <circle cx="237" cy="170" r="2" fill="#F5A623" fill-opacity="0.65"/>
  <circle cx="152" cy="148" r="1.8" fill="#F5A623" fill-opacity="0.55"/>
  <circle cx="248" cy="143" r="1.8" fill="#F5A623" fill-opacity="0.55"/>
  <circle cx="146" cy="196" r="2" fill="#F5A623" fill-opacity="0.4"/>
  <circle cx="254" cy="193" r="2" fill="#F5A623" fill-opacity="0.4"/>
</svg>
