<svg xmlns="http://www.w3.org/2000/svg" viewBox="0 0 400 400" fill="none">
  <defs>
    <radialGradient id="radarCenter" cx="50%" cy="50%" r="50%">
      <stop offset="0%" stop-color="#0E94BB" stop-opacity="0.3"/>
      <stop offset="100%" stop-color="#0E94BB" stop-opacity="0"/>
    </radialGradient>
  </defs>
  <circle cx="200" cy="200" r="188" stroke="#0E94BB" stroke-opacity="0.15" stroke-width="1.5"/>
  <circle cx="200" cy="200" r="150" stroke="#0E94BB" stroke-opacity="0.12" stroke-width="1"/>
  <circle cx="200" cy="200" r="110" stroke="#0E94BB" stroke-opacity="0.12" stroke-width="1"/>
  <circle cx="200" cy="200" r="70" stroke="#0E94BB" stroke-opacity="0.15" stroke-width="1"/>
  <circle cx="200" cy="200" r="35" stroke="#0E94BB" stroke-opacity="0.2" stroke-width="1"/>
  <line x1="200" y1="12" x2="200" y2="388" stroke="#0E94BB" stroke-opacity="0.08" stroke-width="1"/>
  <line x1="12" y1="200" x2="388" y2="200" stroke="#0E94BB" stroke-opacity="0.08" stroke-width="1"/>
  <line x1="67" y1="67" x2="333" y2="333" stroke="#0E94BB" stroke-opacity="0.05" stroke-width="1"/>
  <line x1="333" y1="67" x2="67" y2="333" stroke="#0E94BB" stroke-opacity="0.05" stroke-width="1"/>
  <path d="M200 200 L200 12 A188 188 0 0 1 333 67 Z" fill="url(#radarCenter)" opacity="0.55"/>
  <circle cx="278" cy="122" r="5" fill="#F5A623" fill-opacity="0.85"/>
  <circle cx="278" cy="122" r="11" fill="#F5A623" fill-opacity="0.18"/>
  <circle cx="142" cy="268" r="3.5" fill="#0E94BB" fill-opacity="0.85"/>
  <circle cx="142" cy="268" r="8" fill="#0E94BB" fill-opacity="0.18"/>
  <circle cx="315" cy="250" r="3" fill="#F5A623" fill-opacity="0.6"/>
  <circle cx="315" cy="250" r="7" fill="#F5A623" fill-opacity="0.12"/>
  <circle cx="165" cy="148" r="2.5" fill="#0E94BB" fill-opacity="0.5"/>
  <circle cx="165" cy="148" r="5" fill="#0E94BB" fill-opacity="0.1"/>
  <circle cx="200" cy="200" r="5" fill="#0E94BB" fill-opacity="0.9"/>
  <circle cx="200" cy="200" r="13" fill="#0E94BB" fill-opacity="0.12"/>
  <line x1="200" y1="12" x2="200" y2="24" stroke="#0E94BB" stroke-opacity="0.4" stroke-width="2"/>
  <line x1="200" y1="376" x2="200" y2="388" stroke="#0E94BB" stroke-opacity="0.4" stroke-width="2"/>
  <line x1="12" y1="200" x2="24" y2="200" stroke="#0E94BB" stroke-opacity="0.4" stroke-width="2"/>
  <line x1="376" y1="200" x2="388" y2="200" stroke="#0E94BB" stroke-opacity="0.4" stroke-width="2"/>
</svg>
